<?xml version="1.0" encoding="UTF-8"?>
<svg viewBox="0 0 744.09448819 1052.3622047" xmlns="http://www.w3.org/2000/svg">
 <g transform="matrix(1.4119 -1.3751 1.4119 1.3751 -803.16 -111.45)" fill-rule="evenodd">
  <path d="m205.22 478.53c-9.3228 0.20557-32.409 40.138-38.719 55.875-2.9559 7.373-4.3693 15.194-4.9062 23.625l18.344 27.969-18.594-19.531c-0.0333 8.4167 0.51776 17.394 1.125 27.094l12 14.844-11.531-6.375c0.34608 5.9871 0.66846 12.155 0.8125 18.688 0.53129 24.095 3.2621 61.668 7.8125 98.219l15.156 31.781-14.031-23.219c1.2784 9.6063 2.6675 19.06 4.1875 28.094l14.156 17-13.5-13.312c1.3937 8.0034 2.8954 15.596 4.4688 22.656l14 9.1562-18.741-5.1097c2.2337 8.2287 16.005 10.247 20.225 13.24 0 0-18.352-1.4767-16.481 0.0653 5.136 4.2312 12.223 5.0179 14.951 6.2104 5.2176 2.2806 3.3255 2.0318 3.3255 2.0318-1.7183-0.31873-8.3403 4.3107-12.856 4.275-3.2433-0.0256 2.6433 0.16019 6.3662-0.25953 14.31-4.1628 7.819-1.0595 8.9684-1.9324 1.8048-1.3706-10.876 5.7242-13.106 5.8769-3.1577 0.21605 3.0489 1.4336 5.3547 0.35605 6.3347-3.0329 12.819-5.5291 19.655-1.5848 4.907 2.8316 9.6512-0.21607 7.8019-1.3297-1.7484-1.8359 0.41271 0.30444 0.2971 0.43753-1.4859 1.7106-6.0522-0.7293-6.1023-2.9946-0.0714-3.2319 9.9407-1.7546 8.5089-4.6529-0.29476-0.59665 4.1858 1.4365-1.8251 0.80916-2.1331-0.31119-2.9558-0.90497-4.4048 1.2467 0 0 1.8069-3.3305 0.92239-3.0232-11.553 4.0142 6.8807-4.0658 9.8015-11.357l-13.494 2.5441 10.051-11.724c0.76355-2.9062 1.512-5.9353 2.25-9.0312l-13.531 7.7812 14.062-10.062c0.92178-3.9543 1.8354-8.0372 2.7188-12.25l-18.188 12.875 18.906-16.406c1.3869-6.8048 2.7087-13.9 3.9688-21.125l-19.875 22 20.969-28.375c7.2214-43.29 11.924-90.896 11.906-120.09l-13 8.4375 12.969-10.656c-9e-3 -0.95912-0.0111-1.9608-0.0312-2.875-0.0959-4.3495-0.20685-8.6092-0.34375-12.812l-13.281 12.094 13.188-15.031c-0.5639-15.697-1.5394-30.203-3.5-42.625l-18.094 15.375 14.188-32.688c-0.27488-0.88823-0.54855-1.7758-0.84375-2.625-2.007-5.7734-3.5651-9.7348-6.9062-13.75-6.5932-7.9234-20.233-34.005-27.531-33.844z" fill="#1f5598" opacity=".5787"/>
  <path d="m205.03 478.51c0.98759-6.7e-4 1.7961 80.659 1.8047 180.04s-0.7859 180.05-1.7735 180.05-1.7961-80.659-1.8047-180.04 0.78591-180.05 1.7735-180.05z" fill="#f0e2e2" stroke="#000" stroke-linecap="round" stroke-width=".30448"/>
  <path d="m202.28 842.66c2.174-4.381 4.3103-2.3783 5.4014 0.47766l-2.514-28.929z"/>
 </g>
</svg>
